<svg xmlns="http://www.w3.org/2000/svg" xmlns:xlink="http://www.w3.org/1999/xlink" preserveAspectRatio="xMidYMid" width="477" height="488" viewBox="0 0 477 488">
  <defs>
    <style>
      .cls-1 {
        fill: #000;
        filter: url(#color-overlay-1);
        fill-rule: evenodd;
      }
    </style>

    <filter id="color-overlay-1" filterUnits="userSpaceOnUse">
      <feFlood flood-color="#b4b4b4"/>
      <feComposite operator="in" in2="SourceGraphic"/>
      <feBlend in2="SourceGraphic" result="solidFill"/>
    </filter>
  </defs>
  <path d="M433.276,488.000 L43.724,488.000 C19.574,488.000 -0.001,468.159 -0.001,444.000 L-0.001,98.046 C-0.001,74.333 19.151,55.040 42.458,54.337 L42.458,113.368 C42.458,140.050 64.094,161.552 90.761,161.552 L121.239,161.552 C147.904,161.552 169.827,140.050 169.827,113.368 L169.827,54.125 L307.172,54.125 L307.172,113.368 C307.172,140.050 329.095,161.552 355.766,161.552 L386.238,161.552 C412.905,161.552 434.543,140.050 434.543,113.368 L434.543,54.337 C457.850,55.040 477.001,74.333 477.001,98.046 L477.001,444.000 C477.001,468.118 457.390,488.000 433.276,488.000 ZM420.389,422.457 L420.389,243.759 C420.389,233.314 411.926,224.844 401.486,224.844 L74.681,224.844 C64.239,224.844 55.778,233.314 55.778,243.759 L55.778,422.457 C55.778,432.897 64.240,441.368 74.681,441.368 L401.487,441.368 C411.927,441.368 420.390,432.897 420.390,422.457 L420.389,422.457 ZM354.392,415.549 L315.749,415.549 C309.633,415.549 304.676,410.595 304.676,404.478 L304.676,365.836 C304.676,359.713 309.633,354.765 315.749,354.765 L354.392,354.765 C360.496,354.765 365.453,359.713 365.453,365.836 L365.453,404.478 C365.453,410.594 360.496,415.549 354.392,415.549 ZM354.387,318.951 L315.749,318.951 C309.633,318.951 304.676,313.996 304.676,307.874 L304.676,269.226 C304.676,263.114 309.633,258.161 315.749,258.161 L354.387,258.161 C360.496,258.161 365.453,263.114 365.453,269.226 L365.453,307.874 C365.453,313.996 360.496,318.951 354.387,318.951 ZM257.825,415.549 L219.181,415.549 C213.072,415.549 208.115,410.595 208.115,404.478 L208.115,365.836 C208.115,359.713 213.072,354.765 219.181,354.765 L257.825,354.765 C263.929,354.765 268.886,359.713 268.886,365.836 L268.886,404.478 C268.886,410.594 263.929,415.549 257.825,415.549 ZM257.825,318.951 L219.181,318.951 C213.072,318.951 208.115,313.996 208.115,307.874 L208.115,269.226 C208.115,263.114 213.072,258.161 219.181,258.161 L257.825,258.161 C263.929,258.161 268.886,263.114 268.886,269.226 L268.886,307.874 C268.886,313.996 263.929,318.951 257.825,318.951 ZM161.251,415.549 L122.613,415.549 C116.504,415.549 111.546,410.595 111.546,404.478 L111.546,365.836 C111.546,359.713 116.504,354.765 122.613,354.765 L161.251,354.765 C167.367,354.765 172.323,359.713 172.323,365.836 L172.323,404.478 C172.323,410.594 167.367,415.549 161.251,415.549 ZM161.251,318.951 L122.613,318.951 C116.504,318.951 111.546,313.996 111.546,307.874 L111.546,269.226 C111.546,263.114 116.504,258.161 122.613,258.161 L161.251,258.161 C167.367,258.161 172.323,263.114 172.323,269.226 L172.323,307.874 C172.323,313.996 167.367,318.951 161.251,318.951 ZM385.520,129.904 L355.378,129.904 C346.231,129.904 338.813,122.495 338.813,113.342 L338.813,16.567 C338.813,7.414 346.231,-0.000 355.378,-0.000 L385.520,-0.000 C394.663,-0.000 402.080,7.414 402.080,16.567 L402.080,113.342 C402.080,122.495 394.663,129.904 385.520,129.904 ZM120.795,129.904 L90.654,129.904 C81.504,129.904 74.087,122.495 74.087,113.342 L74.087,16.567 C74.087,7.414 81.504,-0.000 90.654,-0.000 L120.795,-0.000 C129.944,-0.000 137.362,7.414 137.362,16.567 L137.362,113.342 C137.362,122.495 129.944,129.904 120.795,129.904 Z" class="cls-1"/>
</svg>
