<?xml version="1.0" encoding="iso-8859-1"?>
<svg version="1.1" id="Capa_1" xmlns="http://www.w3.org/2000/svg" xmlns:xlink="http://www.w3.org/1999/xlink" x="0px" y="0px"
	 viewBox="0 0 480 480" style="enable-background:new 0 0 480 480;" xml:space="preserve">
	  <style type="text/css">
	.bg-color{fill:#FEBA02;}
	</style>
<g>
	<g>
		<path class="bg-color" d="M440,64H272V0h-16v64h-32V0h-16v64H40C17.944,64,0,81.944,0,104v336c0,22.056,17.944,40,40,40h400
			c22.056,0,40-17.944,40-40V104C480,81.944,462.056,64,440,64z M16,104c0-13.232,10.768-24,24-24h128v128H16V104z M464,440
			c0,13.232-10.768,24-24,24H40c-13.232,0-24-10.768-24-24V288h448V440z M464,272H16v-48h448V272z M464,208H184V80h256
			c13.232,0,24,10.768,24,24V208z"/>
	</g>
</g>
<g>
	<g>
		<path class="bg-color" d="M149.648,114.344l-5.072-5.072c-8.848-8.848-22.144-11.744-33.856-7.336l-44.712,16.768l-4.36-4.36
			c-2.448-2.448-6.152-3.04-9.232-1.504l-16,8c-3.952,1.976-5.552,6.784-3.576,10.736l7.112,14.224
			c5.016,10.032,15.04,15.856,25.544,15.856c3.984,0,8.032-0.832,11.904-2.6l69.904-31.776c2.384-1.088,4.096-3.272,4.56-5.848
			C152.328,118.848,151.504,116.2,149.648,114.344z M70.784,144.488c-6.184,2.816-13.472,0.256-16.512-5.848l-3.528-7.064l3.68-1.84
			l3.92,3.92c2.208,2.224,5.52,2.944,8.464,1.832l49.536-18.568c4.368-1.64,9.168-1.248,13.168,0.872L70.784,144.488z"/>
	</g>
</g>
<g>
	<g>
		<rect class="bg-color" x="32" y="176" width="120" height="16"/>
	</g>
</g>
<g>
	<g>
		<rect class="bg-color" x="248" y="112" width="64" height="16"/>
	</g>
</g>
<g>
	<g>
		<rect class="bg-color" x="328" y="112" width="72" height="16"/>
	</g>
</g>
<g>
	<g>
		<rect class="bg-color" x="216" y="144" width="216" height="16"/>
	</g>
</g>
<g>
	<g>
		<rect class="bg-color" x="216" y="176" width="216" height="16"/>
	</g>
</g>
<g>
	<g>
		<rect class="bg-color" x="32" y="240" width="32" height="16"/>
	</g>
</g>
<g>
	<g>
		<rect class="bg-color" x="80" y="240" width="32" height="16"/>
	</g>
</g>
<g>
	<g>
		<rect class="bg-color" x="128" y="240" width="120" height="16"/>
	</g>
</g>
<g>
	<g>
		<rect class="bg-color" x="128" y="304" width="48" height="16"/>
	</g>
</g>
<g>
	<g>
		<rect class="bg-color" x="128" y="336" width="80" height="16"/>
	</g>
</g>
<g>
	<g>
		<rect class="bg-color" x="128" y="368" width="48" height="16"/>
	</g>
</g>
<g>
	<g>
		<rect class="bg-color" x="128" y="400" width="88" height="16"/>
	</g>
</g>
<g>
	<g>
		<rect class="bg-color" x="128" y="432" width="80" height="16"/>
	</g>
</g>
<g>
	<g>
		<rect class="bg-color" x="304" y="240" width="32" height="16"/>
	</g>
</g>
<g>
	<g>
		<rect class="bg-color" x="360" y="240" width="32" height="16"/>
	</g>
</g>
<g>
	<g>
		<rect class="bg-color" x="416" y="240" width="32" height="16"/>
	</g>
</g>
<g>
	<g>
		<rect class="bg-color" x="40" y="304" width="16" height="16"/>
	</g>
</g>
<g>
	<g>
		<rect class="bg-color" x="40" y="336" width="16" height="16"/>
	</g>
</g>
<g>
	<g>
		<rect class="bg-color" x="40" y="368" width="16" height="16"/>
	</g>
</g>
<g>
	<g>
		<rect class="bg-color" x="40" y="400" width="16" height="16"/>
	</g>
</g>
<g>
	<g>
		<rect class="bg-color" x="40" y="432" width="16" height="16"/>
	</g>
</g>
<g>
	<g>
		<rect class="bg-color" x="312" y="304" width="16" height="16"/>
	</g>
</g>
<g>
	<g>
		<rect class="bg-color" x="312" y="336" width="16" height="16"/>
	</g>
</g>
<g>
	<g>
		<rect class="bg-color" x="312" y="368" width="16" height="16"/>
	</g>
</g>
<g>
	<g>
		<rect class="bg-color" x="312" y="400" width="16" height="16"/>
	</g>
</g>
<g>
	<g>
		<rect class="bg-color" x="312" y="432" width="16" height="16"/>
	</g>
</g>
<g>
	<g>
		<rect class="bg-color" x="368" y="304" width="16" height="16"/>
	</g>
</g>
<g>
	<g>
		<rect class="bg-color" x="368" y="336" width="16" height="16"/>
	</g>
</g>
<g>
	<g>
		<rect class="bg-color" x="368" y="368" width="16" height="16"/>
	</g>
</g>
<g>
	<g>
		<rect class="bg-color" x="368" y="400" width="16" height="16"/>
	</g>
</g>
<g>
	<g>
		<rect class="bg-color" x="368" y="432" width="16" height="16"/>
	</g>
</g>
<g>
	<g>
		<rect class="bg-color" x="424" y="304" width="24" height="16"/>
	</g>
</g>
<g>
	<g>
		<rect class="bg-color" x="424" y="336" width="16" height="16"/>
	</g>
</g>
<g>
	<g>
		<rect class="bg-color" x="424" y="368" width="24" height="16"/>
	</g>
</g>
<g>
	<g>
		<rect class="bg-color" x="424" y="400" width="16" height="16"/>
	</g>
</g>
<g>
	<g>
		<rect class="bg-color" x="424" y="432" width="16" height="16"/>
	</g>
</g>
<g>
	<g>
		<rect class="bg-color" x="88" y="304" width="16" height="16"/>
	</g>
</g>
<g>
	<g>
		<rect class="bg-color" x="80" y="336" width="24" height="16"/>
	</g>
</g>
<g>
	<g>
		<rect class="bg-color" x="88" y="368" width="16" height="16"/>
	</g>
</g>
<g>
	<g>
		<rect class="bg-color" x="80" y="400" width="24" height="16"/>
	</g>
</g>
<g>
	<g>
		<rect class="bg-color" x="88" y="432" width="16" height="16"/>
	</g>
</g>
<g>
	<g>
		<rect class="bg-color" x="192" y="304" width="32" height="16"/>
	</g>
</g>
<g>
	<g>
		<rect class="bg-color" x="192" y="368" width="16" height="16"/>
	</g>
</g>
<g>
</g>
<g>
</g>
<g>
</g>
<g>
</g>
<g>
</g>
<g>
</g>
<g>
</g>
<g>
</g>
<g>
</g>
<g>
</g>
<g>
</g>
<g>
</g>
<g>
</g>
<g>
</g>
<g>
</g>
</svg>
