<?xml version="1.0" encoding="iso-8859-1"?>

<svg version="1.1" id="Capa_1" xmlns="http://www.w3.org/2000/svg" xmlns:xlink="http://www.w3.org/1999/xlink" x="0px" y="0px"
	 viewBox="0 0 512.002 512.002" style="enable-background:new 0 0 512.002 512.002;" xml:space="preserve">
	<style type="text/css">
	.bg-color{fill:#FEBA02;}
	</style>
<g>
	<g>
		<path class="bg-color" d="M395.063,304.935c-4.823-2.692-10.915-0.961-13.604,3.862l-80.5,144.333c-2.69,4.823-0.961,10.914,3.862,13.604
			c1.542,0.86,3.213,1.269,4.862,1.269c3.508,0,6.912-1.85,8.742-5.131l80.5-144.333
			C401.615,313.716,399.886,307.625,395.063,304.935z"/>
	</g>
</g>
<g>
	<g>
		<path class="bg-color" d="M398.195,400.001c-18.748,0-34,15.252-34,34s15.252,34,34,34s34-15.252,34-34S416.943,400.001,398.195,400.001z
			 M398.195,448.001c-7.72,0-14-6.28-14-14c0-7.72,6.28-14,14-14c7.72,0,14,6.28,14,14
			C412.195,441.721,405.915,448.001,398.195,448.001z"/>
	</g>
</g>
<g>
	<g>
		<path class="bg-color" d="M301.81,303.668c-18.748,0-34,15.252-34,34s15.252,34,34,34s34-15.252,34-34S320.558,303.668,301.81,303.668z
			 M301.81,351.668c-7.72,0-14-6.28-14-14c0-7.72,6.28-14,14-14c7.72,0,14,6.28,14,14
			C315.81,345.388,309.529,351.668,301.81,351.668z"/>
	</g>
</g>
<g>
	<g>
		<path class="bg-color" d="M502.002,0.001h-304c-5.522,0-10,4.478-10,10v85.234l-62.737,20.214c-4.133,1.332-6.934,5.177-6.934,9.519v32.904
			L78.697,144.92c12.879-9.054,21.319-24.015,21.319-40.919c0-27.57-22.43-50-50-50s-50,22.43-50,50
			c0,21.67,13.86,40.156,33.177,47.08c-0.002,0.003-0.004,0.006-0.006,0.009L96.1,171.648l-60.655,19.82
			c-0.442,0.135-3.155,1.078-3.26,1.125C13.388,199.787,0,218.005,0,239.301c0,27.57,22.43,50,50,50s50-22.43,50-50
			c0-16.904-8.44-31.865-21.319-40.919l39.666-12.962v32.914c0,4.342,2.801,8.187,6.934,9.519l62.722,20.209v58.939
			c0,5.522,4.478,10,10,10c5.522,0,10-4.478,10-10v-52.495l55.535,17.894c17.774,5.727,36.134,8.571,54.451,8.571
			c24.933,0,49.783-5.272,72.951-15.728c3.763-1.698,6.095-5.533,5.872-9.655c-0.223-4.122-2.956-7.684-6.879-8.966l-229.441-74.974
			L389.916,96.68c3.923-1.282,6.656-4.844,6.879-8.966c0.223-4.122-2.109-7.957-5.872-9.655
			c-40.188-18.136-85.435-20.678-127.401-7.155l-55.52,17.888V20.001h284v472h-284v-93.667c0-5.522-4.478-10-10-10
			c-5.522,0-10,4.478-10,10v103.667c0,5.522,4.478,10,10,10h304c5.522,0,10-4.478,10-10v-492
			C512.002,4.479,507.524,0.001,502.002,0.001z M50.016,134.001c-2.983,0-5.864-0.444-8.586-1.258l-1.443-0.472
			c-11.624-4.136-19.971-15.244-19.971-28.27c0-16.542,13.458-30,30-30s30,13.458,30,30
			C80.016,120.543,66.558,134.001,50.016,134.001z M80,239.301c0,16.542-13.458,30-30,30s-30-13.458-30-30
			c0-13.026,8.347-24.134,19.971-28.27l1.443-0.472c2.722-0.815,5.602-1.258,8.586-1.258C66.542,209.301,80,222.759,80,239.301z
			 M355.511,256.416c-28.16,6.931-57.823,5.974-85.841-3.054L138.347,211.05v-25.597L355.511,256.416z M269.654,89.94
			c28.02-9.028,57.683-9.984,85.84-3.055l-217.163,70.963v-25.597L269.654,89.94z"/>
	</g>
</g>
<g>
	<g>
		<path class="bg-color" d="M348.335,160.135h-12c-5.522,0-10,4.478-10,10c0,5.522,4.478,10,10,10h12c5.522,0,10-4.478,10-10
			C358.335,164.613,353.857,160.135,348.335,160.135z"/>
	</g>
</g>
<g>
	<g>
		<path class="bg-color" d="M292.335,160.135h-12c-5.522,0-10,4.478-10,10c0,5.522,4.478,10,10,10h12c5.522,0,10-4.478,10-10
			C302.335,164.613,297.857,160.135,292.335,160.135z"/>
	</g>
</g>
<g>
	<g>
		<path class="bg-color" d="M236.335,160.135h-12c-5.522,0-10,4.478-10,10c0,5.522,4.478,10,10,10h12c5.522,0,10-4.478,10-10
			C246.335,164.613,241.857,160.135,236.335,160.135z"/>
	</g>
</g>
<g>
	<g>
		<path class="bg-color" d="M460.335,160.135h-12c-5.522,0-10,4.477-10,10c0,5.522,4.478,10,10,10h12c5.522,0,10-4.478,10-10
			C470.335,164.613,465.857,160.135,460.335,160.135z"/>
	</g>
</g>
<g>
	<g>
		<path class="bg-color" d="M404.335,160.135h-12c-5.522,0-10,4.478-10,10c0,5.522,4.478,10,10,10h12c5.522,0,10-4.478,10-10
			C414.335,164.613,409.857,160.135,404.335,160.135z"/>
	</g>
</g>
<g>
	<g>
		<path class="bg-color" d="M205.075,343.992c-1.859-1.86-4.439-2.931-7.069-2.931c-2.641,0-5.221,1.07-7.07,2.931c-1.87,1.859-2.93,4.439-2.93,7.069
			s1.06,5.21,2.93,7.07c1.86,1.86,4.429,2.93,7.07,2.93c2.63,0,5.21-1.069,7.069-2.93c1.86-1.86,2.931-4.44,2.931-7.07
			S206.936,345.851,205.075,343.992z"/>
	</g>
</g>
<g>
</g>
<g>
</g>
<g>
</g>
<g>
</g>
<g>
</g>
<g>
</g>
<g>
</g>
<g>
</g>
<g>
</g>
<g>
</g>
<g>
</g>
<g>
</g>
<g>
</g>
<g>
</g>
<g>
</g>
</svg>
